<?xml version="1.0" encoding="UTF-8" standalone="no"?>
<svg
   version="1.1"
   id="svg1"
   width="500"
   height="500"
   viewBox="0 0 500 500"
   xmlns="http://www.w3.org/2000/svg">
  <title id="title16">StormCat</title>
  <defs id="defs1">
    <path
       id="path-effect9" />
  </defs>
  <g
     id="namedview1"
     pagecolor="#ffffff"
     bordercolor="#000000"
     borderopacity="0.25"
     showpageshadow="2"
     pageopacity="0.0"
     pagecheckerboard="0"
     deskcolor="#d1d1d1"
     zoom="2.8284272"
     cx="240.76985"
     cy="190.3885"
     window-width="1920"
     window-height="1009"
     window-x="1912"
     window-y="-8"
     window-maximized="1"
     current-layer="g1">
    <path
       id="path17"
       style="fill:#000000;stroke-width:0.983265"
       d="M 250.54883,1.4570312 A 249.25514,249.25514 0 0 0 1.2929688,250.71289 249.25514,249.25514 0 0 0 250.54883,499.9668 249.25514,249.25514 0 0 0 499.80273,250.71289 249.25514,249.25514 0 0 0 250.54883,1.4570312 Z M 154.22266,97.638672 c 1.38183,0.0067 2.76795,0.42339 3.63476,0.845703 l 52.07227,28.800785 -16.47071,10.91992 -27.00976,-14.66602 -0.043,29.61719 -16.94727,14.6582 0.31055,-64.92383 c -0.14149,-4.135655 2.15006,-5.263082 4.45313,-5.251948 z m 196.65625,1.128906 c 2.52085,-0.0031 5.20938,1.167664 4.62304,5.681642 l -5.84765,64.66016 -15.48047,-16.19922 2.76562,-29.48828 -28.27734,12.03906 -15.36133,-12.4336 54.56836,-23.732418 c 0.75246,-0.281842 1.86392,-0.525949 3.00977,-0.527344 z m -93.4336,24.146482 c 44.66999,3.97334 59.5874,35.22496 60.13867,45.88282 0,-10e-6 1.43216,8.35935 7.17383,7.6914 5.74175,-0.66795 4.68628,-9.80083 4.23242,-12.59766 9.31722,6.73457 18.14678,15.87383 22.44141,26.09571 -0.16689,-0.0325 -14.55425,1.4917 -25.36719,16.32617 -9.75663,-2.44017 -27.15047,-3.65405 -27.37304,-1.85742 -0.20321,1.686 15.07159,4.46985 25.46484,4.68554 -4.83388,7.81749 -6.70473,16.19166 -5.12695,21.61329 1.57797,5.42227 5.57537,8.17622 9.7207,4.96875 1.92918,-1.49277 -0.49114,-6.75959 2.8457,-16.60743 3.06325,-9.31571 13.5151,-24.53075 33.59375,-25.35156 20.21678,-0.7715 37.29787,14.85325 38.32617,35.0586 0.28154,17.77857 -12.60583,52.0321 -50.29882,51.50195 l -200.03321,0.40234 c -51.08203,-4.33334 -62.067492,-66.69968 -17.17773,-87.04687 -0.28961,0.16549 -0.82468,10.16406 5.81055,8.98828 9.06994,-0.91965 1.13042,-9.62245 18.49609,-29.58594 8.26398,-7.51667 16.81487,-19.30673 34.21289,-23.25781 0,0 -3.80952,7.63931 -4.00391,20.36914 -0.0653,4.27765 0.004,12.11523 5.58008,12.11523 5.06874,0 6.21526,-1.21725 6.31446,-11.97461 0.28105,-30.47399 27.45669,-47.73332 55.02929,-47.41992 z m -27.54492,38.84571 c -3.74082,-0.20087 -5.46053,0.91527 -6.68359,1.61914 -5.83934,3.36564 -7.85241,10.82294 -4.5,16.66992 l 0.0547,0.0976 c 3.40595,5.81631 10.87737,7.77787 16.70118,4.38477 5.82335,-3.3923 7.80232,-10.85808 4.42382,-16.68945 -2.08216,-3.59408 -5.8471,-5.8848 -9.99609,-6.08203 z m 58.73438,0 c -0.93498,-0.0575 -3.66152,0.11524 -6.68555,1.61914 -5.83934,3.36564 -7.85241,10.82294 -4.5,16.66992 l 0.0566,0.0976 c 3.40589,5.81513 10.87584,7.77654 16.69922,4.38477 5.82335,-3.3923 7.80228,-10.85808 4.42383,-16.68945 -2.08184,-3.59352 -5.84591,-5.88415 -9.99414,-6.08203 z m 38.71679,25.33593 c -9.09565,-0.31125 -27.11096,1.53267 -26.96094,3.53711 0.19432,2.65138 32.27852,0.21744 32.08008,-2.43359 -0.0467,-0.65656 -2.08725,-0.99976 -5.11914,-1.10352 z m -138.26953,0.70703 c -3.03189,0.10375 -5.07248,0.44694 -5.11914,1.10352 -0.19849,2.65103 31.88572,5.08497 32.08008,2.43359 0.15007,-2.00438 -17.86529,-3.84836 -26.96094,-3.53711 z m 69.72852,0.75782 c -6.71105,-0.064 -8.95283,2.76832 -9.08008,4.21679 -0.29177,4.43089 3.14667,8.4513 7.09765,10.15235 -1.21978,4.60825 -4.55907,7.68226 -9.52929,7.88672 -5.15457,0.28337 -6.13281,-1.53907 -6.13281,-1.53907 -2.09586,-1.91881 -4.91246,1.34962 -3.16993,2.98828 4.85543,3.64121 11.4477,3.66586 16.74219,0.73829 2.43377,-1.45822 4.02877,-4.01757 4.07227,-5.5918 0.0435,1.57423 1.63655,4.13358 4.07031,5.5918 5.15702,2.84477 12.04454,3.04875 16.74219,-0.73829 1.74259,-1.63866 -1.07407,-4.90709 -3.16993,-2.98828 10e-6,0 -0.97824,1.82244 -6.13281,1.53907 -4.74269,-0.52371 -8.56128,-3.03945 -9.52929,-7.88672 3.89909,-1.57624 7.48538,-5.81289 7.09765,-10.15235 -0.12705,-1.44618 -2.36582,-4.28079 -9.07812,-4.21679 z m 56.56054,6.64062 c -8.04403,-1e-5 -16.08889,0.66482 -16.08789,1.99414 0.0174,2.65624 32.15723,2.6561 32.17383,0 0.001,-1.32927 -8.04189,-1.99413 -16.08594,-1.99414 z m -114.30664,0.70703 c -8.04403,0 -16.08889,0.66485 -16.08789,1.99414 0.0174,2.65624 32.15723,2.65609 32.17383,0 0.001,-1.32927 -8.04189,-1.99413 -16.08594,-1.99414 z m 11.52149,8.50782 c -9.10599,0.0791 -27.05397,2.37909 -26.78516,4.60937 0.33105,2.63673 32.25942,-1.22488 31.94141,-3.86328 -0.0684,-0.55197 -2.12093,-0.77247 -5.15625,-0.74609 z m 73.86523,87.30859 -21.2539,26.58398 41.35156,1.04883 -119.48242,99.69141 c -3.9107,3.26292 -5.33119,-0.75587 -3.41407,-3.08203 28.27681,-36.05314 63.42383,-80.50391 63.42383,-80.50391 l -30.92187,-0.38672 c 0,0 -6.20216,0.385 -2.35742,-4.79492 l 28.4707,-38.35742 z"
       insensitive="true" />
  </g>
</svg>